<svg width="36" height="37" viewBox="0 0 36 37" fill="none" xmlns="http://www.w3.org/2000/svg">
<path d="M17.875 36.0557C15.4583 36.0557 13.1851 35.5927 11.0554 34.6669C8.92597 33.7411 7.06264 32.4841 5.46541 30.8961C3.86819 29.308 2.61125 27.4451 1.69458 25.3073C0.777913 23.1693 0.31958 20.8959 0.31958 18.4873C0.31958 16.0329 0.783886 13.7377 1.7125 11.6019C2.64083 9.46607 3.92083 7.60732 5.5525 6.02566C7.18416 4.44399 9.085 3.20177 11.255 2.29899C13.425 1.39621 15.7482 0.944824 18.2246 0.944824C20.584 0.944824 22.8171 1.3458 24.9237 2.14774C27.0304 2.94941 28.8824 4.0558 30.4796 5.46691C32.0765 6.87802 33.3472 8.54885 34.2917 10.4794C35.2361 12.41 35.7083 14.5095 35.7083 16.7782C35.7083 20.1762 34.6528 22.7665 32.5417 24.549C30.4306 26.3312 27.8935 27.2223 24.9304 27.2223H22.4862C22.1621 27.2223 21.8774 27.352 21.6321 27.6115C21.3865 27.8707 21.2637 28.1576 21.2637 28.4723C21.2637 28.8429 21.4212 29.2272 21.7362 29.6252C22.051 30.0233 22.2083 30.5986 22.2083 31.3511C22.2083 32.395 21.7569 33.4401 20.8542 34.4865C19.9514 35.5326 18.9583 36.0557 17.875 36.0557ZM8.22208 20.1115C8.91652 20.1115 9.51847 19.8615 10.0279 19.3615C10.5371 18.8615 10.7917 18.2595 10.7917 17.5557C10.7917 16.852 10.5371 16.2502 10.0279 15.7502C9.51847 15.2502 8.91652 15.0002 8.22208 15.0002C7.52764 15.0002 6.93041 15.2502 6.43041 15.7502C5.93041 16.2502 5.68041 16.852 5.68041 17.5557C5.68041 18.2595 5.93041 18.8615 6.43041 19.3615C6.93041 19.8615 7.52764 20.1115 8.22208 20.1115ZM13.4446 13.0557C14.139 13.0557 14.7408 12.8057 15.25 12.3057C15.7592 11.8057 16.0137 11.2039 16.0137 10.5002C16.0137 9.79663 15.7592 9.19482 15.25 8.69482C14.7408 8.19482 14.139 7.94482 13.4446 7.94482C12.7501 7.94482 12.1529 8.19482 11.6529 8.69482C11.1529 9.19482 10.9029 9.79663 10.9029 10.5002C10.9029 11.2039 11.1529 11.8057 11.6529 12.3057C12.1529 12.8057 12.7501 13.0557 13.4446 13.0557ZM22.2779 13.0557C22.9724 13.0557 23.5742 12.8057 24.0833 12.3057C24.5925 11.8057 24.8471 11.2039 24.8471 10.5002C24.8471 9.79663 24.5925 9.19482 24.0833 8.69482C23.5742 8.19482 22.9724 7.94482 22.2779 7.94482C21.5835 7.94482 20.9862 8.19482 20.4862 8.69482C19.9862 9.19482 19.7362 9.79663 19.7362 10.5002C19.7362 11.2039 19.9862 11.8057 20.4862 12.3057C20.9862 12.8057 21.5835 13.0557 22.2779 13.0557ZM27.6946 20.1115C28.389 20.1115 28.9908 19.8615 29.5 19.3615C30.0092 18.8615 30.2637 18.2595 30.2637 17.5557C30.2637 16.852 30.0092 16.2502 29.5 15.7502C28.9908 15.2502 28.389 15.0002 27.6946 15.0002C27.0001 15.0002 26.4029 15.2502 25.9029 15.7502C25.4029 16.2502 25.1529 16.852 25.1529 17.5557C25.1529 18.2595 25.4029 18.8615 25.9029 19.3615C26.4029 19.8615 27.0001 20.1115 27.6946 20.1115Z" fill="#FA9A84"/>
</svg>
