<svg width="34" height="33" viewBox="0 0 34 33" fill="none" xmlns="http://www.w3.org/2000/svg">
<path d="M4.38874 32.3886C2.82041 32.3886 1.71541 31.685 1.07374 30.2778C0.432075 28.8703 0.620408 27.5647 1.63874 26.3611L11.6112 14.8886V4.1665H9.83333C9.34527 4.1665 8.93624 3.98914 8.60624 3.63442C8.27624 3.2797 8.11124 2.86206 8.11124 2.3815C8.11124 1.90095 8.27624 1.49498 8.60624 1.16359C8.93624 0.832198 9.34527 0.666504 9.83333 0.666504H24.1667C24.6439 0.666504 25.0594 0.832059 25.4133 1.16317C25.7675 1.494 25.9446 1.90414 25.9446 2.39359C25.9446 2.89859 25.7742 3.32039 25.4333 3.659C25.0925 3.99734 24.6703 4.1665 24.1667 4.1665H22.4446V14.8886L32.3612 26.3611C33.3796 27.5647 33.559 28.8703 32.8996 30.2778C32.2401 31.685 31.144 32.3886 29.6112 32.3886H4.38874Z" fill="#FA9A84"/>
</svg>
