<svg width="40" height="29" viewBox="0 0 40 29" fill="none" xmlns="http://www.w3.org/2000/svg">
<path d="M9.61416 28.6389C8.14916 28.6389 6.90277 28.1259 5.875 27.0997C4.84722 26.0734 4.33333 24.8272 4.33333 23.3614H2.70833C2.21305 23.3614 1.79527 23.1913 1.455 22.851C1.11472 22.5107 0.94458 22.0928 0.94458 21.5972V3.8335C0.94458 2.89655 1.29361 2.07905 1.99166 1.381C2.69 0.682663 3.50764 0.333496 4.44458 0.333496H25.25C26.2361 0.333496 27.066 0.670302 27.7396 1.34391C28.4132 2.01752 28.75 2.84739 28.75 3.8335V7.5835H32.1112C32.6571 7.5835 33.1743 7.70044 33.6629 7.93433C34.1515 8.16794 34.5601 8.50002 34.8887 8.93058L38.7083 13.9722C38.8103 14.1284 38.8936 14.2928 38.9583 14.4656C39.0231 14.6386 39.0554 14.8261 39.0554 15.0281V21.5906C39.0554 22.0906 38.8854 22.5107 38.5454 22.851C38.2054 23.1913 37.7968 23.3614 37.3196 23.3614H35.6387C35.6387 24.8336 35.126 26.0813 34.1004 27.1043C33.0749 28.1274 31.8296 28.6389 30.3646 28.6389C28.9149 28.6389 27.6814 28.1259 26.6642 27.0997C25.6472 26.0734 25.1387 24.8272 25.1387 23.3614H14.8887C14.8887 24.8336 14.376 26.0813 13.3504 27.1043C12.3249 28.1274 11.0794 28.6389 9.61416 28.6389ZM9.61 25.1389C10.1014 25.1389 10.5207 24.9657 10.8679 24.6193C11.2151 24.2727 11.3887 23.8536 11.3887 23.3622C11.3887 22.8709 11.2156 22.4516 10.8692 22.1043C10.5225 21.7571 10.1035 21.5835 9.61208 21.5835C9.12069 21.5835 8.70139 21.7568 8.35416 22.1035C8.00694 22.4499 7.83333 22.8688 7.83333 23.3602C7.83333 23.8516 8.00666 24.2709 8.35333 24.6181C8.69972 24.9653 9.11861 25.1389 9.61 25.1389ZM30.36 25.1389C30.8514 25.1389 31.2707 24.9657 31.6179 24.6193C31.9651 24.2727 32.1387 23.8536 32.1387 23.3622C32.1387 22.8709 31.9656 22.4516 31.6192 22.1043C31.2725 21.7571 30.8535 21.5835 30.3621 21.5835C29.8707 21.5835 29.4514 21.7568 29.1042 22.1035C28.7569 22.4499 28.5833 22.8688 28.5833 23.3602C28.5833 23.8516 28.7567 24.2709 29.1033 24.6181C29.4497 24.9653 29.8686 25.1389 30.36 25.1389ZM28.75 16.3056H36.0554L32.1112 11.0835H28.75V16.3056Z" fill="#FA9A84"/>
</svg>
