<svg width="30" height="37" viewBox="0 0 30 37" fill="none" xmlns="http://www.w3.org/2000/svg">
<path d="M13.2779 32.6112V25.7778H9.94456C7.41317 25.7778 5.26179 24.8921 3.4904 23.1207C1.71901 21.3494 0.833313 19.198 0.833313 16.6666C0.833313 14.8955 1.29165 13.2513 2.20831 11.7341C3.12498 10.2169 4.39817 9.12033 6.0279 8.4445C6.31484 6.21283 7.31359 4.37714 9.02415 2.93742C10.735 1.49769 12.7258 0.777832 14.9966 0.777832C17.2675 0.777832 19.2593 1.49769 20.9721 2.93742C22.6851 4.37714 23.6851 6.21283 23.9721 8.4445C25.6018 9.14811 26.875 10.2516 27.7916 11.7549C28.7083 13.2582 29.1666 14.8955 29.1666 16.6666C29.1666 19.198 28.281 21.3494 26.5096 23.1207C24.7382 24.8921 22.5868 25.7778 20.0554 25.7778H16.7779V32.6112H25.2083C25.6855 32.6112 26.0941 32.7817 26.4341 33.1228C26.7744 33.4639 26.9446 33.8766 26.9446 34.3607C26.9446 34.8449 26.7744 35.2577 26.4341 35.5991C26.0941 35.9405 25.6855 36.1112 25.2083 36.1112H5.09706C4.60179 36.1112 4.18401 35.9388 3.84373 35.5941C3.50345 35.2494 3.33331 34.8351 3.33331 34.3512C3.33331 33.867 3.50345 33.4559 3.84373 33.1178C4.18401 32.7801 4.60179 32.6112 5.09706 32.6112H13.2779Z" fill="#FA9A84"/>
</svg>
