<svg width="129" height="50" viewBox="0 0 129 50" fill="none" xmlns="http://www.w3.org/2000/svg">
<rect y="13.2822" width="61.5215" height="23.3357" rx="2.12143" fill="#FA9A84"/>
<path d="M2.54922 31.6123L5.19639 18.0914L9.5133 27.8655L13.985 18.0914L16.3634 31.6123H14.4167L13.203 24.021L9.48072 32.1906L5.86429 24.0129L4.51219 31.6123H2.54922ZM21.5189 30.138L17.9513 23.679H20.0772L22.5045 28.2402L24.7688 23.679H26.8377L20.517 35.9292H18.4237L21.5189 30.138ZM28.4256 23.679H30.2583V24.412C30.6112 24.0428 30.9126 23.793 31.1624 23.6627C31.4285 23.5269 31.7624 23.459 32.1642 23.459C33.0602 23.459 33.7688 23.85 34.2901 24.6319C34.8657 23.85 35.6449 23.459 36.6278 23.459C38.4143 23.459 39.3075 24.5423 39.3075 26.7089V31.6123H37.4667V27.2058C37.4667 26.4456 37.3744 25.908 37.1898 25.5931C36.9997 25.2727 36.6875 25.1125 36.2531 25.1125C35.7481 25.1125 35.3789 25.3025 35.1454 25.6827C34.9173 26.0628 34.8033 26.6736 34.8033 27.5153V31.6123H32.9625V27.2302C32.9625 25.8184 32.5552 25.1125 31.7407 25.1125C31.2248 25.1125 30.8474 25.3053 30.6085 25.6908C30.375 26.0763 30.2583 26.6845 30.2583 27.5153V31.6123H28.4256V23.679ZM43.787 23.679V31.6123H41.9544V23.679H43.787ZM41.6774 20.3802C41.6774 20.0598 41.7942 19.7829 42.0277 19.5494C42.2612 19.3159 42.5408 19.1991 42.8666 19.1991C43.1978 19.1991 43.4802 19.3159 43.7137 19.5494C43.9472 19.7774 44.0639 20.0571 44.0639 20.3883C44.0639 20.7196 43.9472 21.0019 43.7137 21.2354C43.4856 21.4689 43.206 21.5857 42.8748 21.5857C42.5435 21.5857 42.2612 21.4689 42.0277 21.2354C41.7942 21.0019 41.6774 20.7168 41.6774 20.3802ZM46.442 23.679H48.2828V24.412C48.9235 23.7767 49.6457 23.459 50.4494 23.459C51.3725 23.459 52.092 23.7495 52.6079 24.3306C53.0531 24.8247 53.2758 25.6311 53.2758 26.7497V31.6123H51.435V27.1814C51.435 26.3994 51.3264 25.8591 51.1092 25.5605C50.8974 25.2564 50.5118 25.1043 49.9525 25.1043C49.3444 25.1043 48.9127 25.3053 48.6575 25.7071C48.4077 26.1035 48.2828 26.7958 48.2828 27.7841V31.6123H46.442V23.679ZM57.7634 23.679V31.6123H55.9307V23.679H57.7634ZM55.6538 20.3802C55.6538 20.0598 55.7706 19.7829 56.004 19.5494C56.2375 19.3159 56.5172 19.1991 56.843 19.1991C57.1742 19.1991 57.4566 19.3159 57.6901 19.5494C57.9236 19.7774 58.0403 20.0571 58.0403 20.3883C58.0403 20.7196 57.9236 21.0019 57.6901 21.2354C57.462 21.4689 57.1824 21.5857 56.8511 21.5857C56.5199 21.5857 56.2375 21.4689 56.004 21.2354C55.7706 21.0019 55.6538 20.7168 55.6538 20.3802Z" fill="black"/>
<path d="M85.6821 25.8762C84.8671 25.8762 84.2559 26.0049 83.8484 26.2622C83.4623 26.4981 83.2049 26.9593 83.0763 27.6456C82.969 28.3319 82.9154 29.3506 82.9154 30.7018V34.691C81.9288 35.313 80.6742 35.8599 79.1514 36.3317C77.6501 36.8036 76.0737 37.0395 74.4223 37.0395C72.6851 37.0395 71.1087 36.7392 69.6932 36.1387C68.2991 35.5382 67.098 34.7125 66.09 33.6615C65.1034 32.6106 64.3421 31.3881 63.8059 29.9941C63.2697 28.5785 63.0016 27.0665 63.0016 25.458C63.0016 23.3132 63.4413 21.3722 64.3206 19.635C65.2214 17.8978 66.5082 16.5144 68.1811 15.485C69.854 14.434 71.8701 13.9086 74.2293 13.9086C75.3231 13.9086 76.3954 14.0158 77.4464 14.2303C78.4973 14.4448 79.441 14.7021 80.2774 15.0024C81.1138 15.3027 81.7358 15.5922 82.1433 15.871V19.9889L81.7894 19.9246C81.6179 18.7021 81.1567 17.7048 80.4061 16.9327C79.6554 16.1606 78.7332 15.5922 77.6394 15.2276C76.567 14.8415 75.4303 14.6485 74.2293 14.6485C72.3419 14.6485 70.7655 15.1204 69.5001 16.064C68.2562 16.9863 67.3232 18.2624 66.7013 19.8924C66.1007 21.5224 65.8005 23.3776 65.8005 25.458C65.8005 27.5383 66.1222 29.4043 66.7656 31.0557C67.4305 32.6857 68.4063 33.9725 69.6932 34.9162C70.98 35.8384 72.5564 36.2996 74.4223 36.2996C75.9879 36.2996 77.2641 36.0851 78.2506 35.6561C79.2587 35.2057 80.0629 34.5194 80.6634 33.5972V31.0879C80.6634 29.9297 80.642 29.0075 80.5991 28.3212C80.5562 27.6134 80.449 27.0879 80.2774 26.7448C80.1058 26.3802 79.8377 26.1443 79.4731 26.037C79.1085 25.9298 78.5938 25.8762 77.9289 25.8762L77.8646 25.5545H85.7465L85.6821 25.8762ZM106.012 32.1173L106.398 32.053V36.7178H90.1835L90.2479 36.3317C90.9771 36.3317 91.5454 36.2674 91.9529 36.1387C92.3819 35.9886 92.6929 35.6883 92.8859 35.2379C93.1004 34.7875 93.2398 34.1012 93.3041 33.179C93.3684 32.2567 93.4006 31.0128 93.4006 29.4471V21.4688C93.4006 19.9031 93.3684 18.6592 93.3041 17.7369C93.2398 16.8147 93.1004 16.1284 92.8859 15.678C92.6929 15.2062 92.3819 14.9059 91.9529 14.7772C91.5454 14.6271 90.9771 14.552 90.2479 14.552L90.1835 14.1981H105.207V18.8307L104.821 18.7664C104.821 17.2651 104.017 16.2571 102.408 15.7423C100.821 15.2062 98.5587 14.9381 95.6204 14.9381V25.0719C97.1432 25.0719 98.3442 25.0183 99.2236 24.911C100.103 24.8038 100.757 24.6322 101.186 24.3963C101.615 24.1389 101.883 23.7851 101.99 23.3347C102.119 22.8628 102.183 22.273 102.183 21.5653L102.537 21.5009V29.3185L102.183 29.2541C102.183 28.5464 102.119 27.9673 101.99 27.5169C101.883 27.0451 101.615 26.6912 101.186 26.4553C100.757 26.1979 100.103 26.0263 99.2236 25.9405C98.3442 25.8333 97.1432 25.7797 95.6204 25.7797V29.9297C95.6204 31.4096 95.6526 32.557 95.7169 33.372C95.7813 34.187 95.8992 34.7875 96.0708 35.1736C96.2638 35.5382 96.5534 35.8063 96.9394 35.9778C98.7195 35.9778 100.285 35.8492 101.636 35.5918C103.009 35.3344 104.081 34.9269 104.853 34.3693C105.626 33.7902 106.012 33.0396 106.012 32.1173ZM126.672 32.1173L127.026 32.053V36.7178H111.648L111.713 36.3317C112.442 36.3317 113.01 36.2674 113.418 36.1387C113.847 35.9886 114.158 35.6883 114.351 35.2379C114.565 34.7875 114.694 34.1012 114.737 33.179C114.801 32.2567 114.833 31.0128 114.833 29.4471V21.4688C114.833 19.9031 114.801 18.6592 114.737 17.7369C114.694 16.8147 114.565 16.1284 114.351 15.678C114.158 15.2062 113.847 14.9059 113.418 14.7772C113.01 14.6271 112.442 14.552 111.713 14.552L111.648 14.1981H120.302L120.238 14.552C119.509 14.552 118.93 14.6271 118.501 14.7772C118.093 14.9059 117.782 15.2062 117.568 15.678C117.375 16.1284 117.246 16.8147 117.182 17.7369C117.117 18.6592 117.085 19.9031 117.085 21.4688V29.9297C117.085 31.4096 117.107 32.5677 117.15 33.4042C117.214 34.2406 117.332 34.8519 117.503 35.2379C117.696 35.624 117.986 35.9028 118.372 36.0744C120.946 36.0744 122.972 35.7634 124.452 35.1414C125.932 34.5194 126.672 33.5114 126.672 32.1173Z" fill="black"/>
</svg>
