<svg xmlns="http://www.w3.org/2000/svg" style="position: absolute; width: 0; height: 0; clip: rect(0 0 0 0);">
    <symbol id="icon-percent" viewBox="0 0 16 17">
        <path d="M3.5 7.625C2.53333 7.625 1.70833 7.28333 1.025 6.6C0.341667 5.91667 1.19209e-07 5.09167 1.19209e-07 4.125C1.19209e-07 3.15833 0.341667 2.33333 1.025 1.65C1.70833 0.966666 2.53333 0.624999 3.5 0.624999C4.46667 0.624999 5.29167 0.966666 5.975 1.65C6.65833 2.33333 7 3.15833 7 4.125C7 5.09167 6.65833 5.91667 5.975 6.6C5.29167 7.28333 4.46667 7.625 3.5 7.625ZM3.5 5.625C3.91667 5.625 4.26667 5.48333 4.55 5.2C4.85 4.9 5 4.54167 5 4.125C5 3.70833 4.85 3.35833 4.55 3.075C4.26667 2.775 3.91667 2.625 3.5 2.625C3.08333 2.625 2.725 2.775 2.425 3.075C2.14167 3.35833 2 3.70833 2 4.125C2 4.54167 2.14167 4.9 2.425 5.2C2.725 5.48333 3.08333 5.625 3.5 5.625ZM12.5 16.625C11.5333 16.625 10.7083 16.2833 10.025 15.6C9.34167 14.9167 9 14.0917 9 13.125C9 12.1583 9.34167 11.3333 10.025 10.65C10.7083 9.96667 11.5333 9.625 12.5 9.625C13.4667 9.625 14.2917 9.96667 14.975 10.65C15.6583 11.3333 16 12.1583 16 13.125C16 14.0917 15.6583 14.9167 14.975 15.6C14.2917 16.2833 13.4667 16.625 12.5 16.625ZM12.5 14.625C12.9167 14.625 13.2667 14.4833 13.55 14.2C13.85 13.9 14 13.5417 14 13.125C14 12.7083 13.85 12.3583 13.55 12.075C13.2667 11.775 12.9167 11.625 12.5 11.625C12.0833 11.625 11.725 11.775 11.425 12.075C11.1417 12.3583 11 12.7083 11 13.125C11 13.5417 11.1417 13.9 11.425 14.2C11.725 14.4833 12.0833 14.625 12.5 14.625ZM0.7 15.925C0.516667 15.7417 0.425 15.5083 0.425 15.225C0.425 14.9417 0.516667 14.7083 0.7 14.525L13.9 1.325C14.0833 1.14166 14.3167 1.05 14.6 1.05C14.8833 1.05 15.1167 1.14166 15.3 1.325C15.4833 1.50833 15.575 1.74167 15.575 2.025C15.575 2.30833 15.4833 2.54167 15.3 2.725L2.1 15.925C1.91667 16.1083 1.68333 16.2 1.4 16.2C1.11667 16.2 0.883334 16.1083 0.7 15.925Z" fill="#281B21"/>
    </symbol>
    <symbol id="icon-medal" viewBox="0 0 16 22">
        <path d="M8 10.55L6.3 11.85C6.2 11.9333 6.1 11.9417 6 11.875C5.9 11.7917 5.86667 11.6917 5.9 11.575L6.55 9.475L4.8 8.075C4.71667 7.99167 4.69167 7.9 4.725 7.8C4.75833 7.68333 4.83333 7.625 4.95 7.625H7.1L7.75 5.575C7.78333 5.45833 7.86667 5.4 8 5.4C8.13333 5.4 8.21667 5.45833 8.25 5.575L8.9 7.625H11.025C11.1417 7.625 11.2167 7.68333 11.25 7.8C11.3 7.9 11.2833 7.99167 11.2 8.075L9.425 9.475L10.075 11.575C10.1083 11.6917 10.075 11.7917 9.975 11.875C9.875 11.9417 9.775 11.9333 9.675 11.85L8 10.55ZM8 19.625L3.325 21.175C2.99167 21.2917 2.68333 21.25 2.4 21.05C2.13333 20.85 2 20.5833 2 20.25V13.9C1.36667 13.2 0.875 12.4 0.525 11.5C0.175 10.6 1.19209e-07 9.64167 1.19209e-07 8.625C1.19209e-07 6.39167 0.775 4.5 2.325 2.95C3.875 1.4 5.76667 0.625 8 0.625C10.2333 0.625 12.125 1.4 13.675 2.95C15.225 4.5 16 6.39167 16 8.625C16 9.64167 15.825 10.6 15.475 11.5C15.125 12.4 14.6333 13.2 14 13.9V20.25C14 20.5833 13.8583 20.85 13.575 21.05C13.3083 21.25 13.0083 21.2917 12.675 21.175L8 19.625ZM8 14.625C9.66667 14.625 11.0833 14.0417 12.25 12.875C13.4167 11.7083 14 10.2917 14 8.625C14 6.95833 13.4167 5.54167 12.25 4.375C11.0833 3.20833 9.66667 2.625 8 2.625C6.33333 2.625 4.91667 3.20833 3.75 4.375C2.58333 5.54167 2 6.95833 2 8.625C2 10.2917 2.58333 11.7083 3.75 12.875C4.91667 14.0417 6.33333 14.625 8 14.625Z" fill="#281B21"/>
    </symbol>
    <symbol id="icon-flex" viewBox="0 0 18 17">
        <path d="M15.75 5.275C15.3 5.725 14.7833 6.06667 14.2 6.3C13.6167 6.53333 13.0333 6.65 12.45 6.65C11.8667 6.65 11.2917 6.54167 10.725 6.325C10.1583 6.09167 9.65 5.74167 9.2 5.275L7.325 3.4C7.075 3.15 6.79167 2.96667 6.475 2.85C6.15833 2.71667 5.83333 2.65 5.5 2.65C5.16667 2.65 4.84167 2.71667 4.525 2.85C4.20833 2.96667 3.925 3.15 3.675 3.4L2.5 4.575C2.3 4.775 2.06667 4.875 1.8 4.875C1.53333 4.85833 1.3 4.75 1.1 4.55C0.9 4.35 0.8 4.11667 0.8 3.85C0.8 3.56667 0.9 3.325 1.1 3.125L2.25 1.975C2.7 1.525 3.20833 1.19167 3.775 0.974999C4.34167 0.741666 4.91667 0.624999 5.5 0.624999C6.08333 0.624999 6.65 0.741666 7.2 0.974999C7.76667 1.19167 8.275 1.525 8.725 1.975L10.6 3.85C10.8667 4.11667 11.1583 4.31667 11.475 4.45C11.7917 4.56667 12.1167 4.625 12.45 4.625C12.7833 4.625 13.1083 4.56667 13.425 4.45C13.7583 4.31667 14.0583 4.11667 14.325 3.85L15.5 2.675C15.7 2.475 15.9333 2.375 16.2 2.375C16.4833 2.375 16.725 2.475 16.925 2.675C17.125 2.875 17.225 3.11667 17.225 3.4C17.225 3.66667 17.125 3.9 16.925 4.1L15.75 5.275ZM15.75 10.275C15.3 10.725 14.7833 11.0667 14.2 11.3C13.6333 11.5167 13.0583 11.625 12.475 11.625C11.8917 11.625 11.3083 11.5167 10.725 11.3C10.1583 11.0667 9.65 10.725 9.2 10.275L7.325 8.4C7.075 8.15 6.79167 7.96667 6.475 7.85C6.15833 7.71667 5.83333 7.65 5.5 7.65C5.16667 7.65 4.84167 7.71667 4.525 7.85C4.20833 7.96667 3.925 8.15 3.675 8.4L2.5 9.575C2.31667 9.75833 2.08333 9.85833 1.8 9.875C1.53333 9.875 1.3 9.775 1.1 9.575C0.9 9.39167 0.791667 9.15833 0.775 8.875C0.775 8.59167 0.875 8.35 1.075 8.15L2.25 6.975C2.7 6.525 3.20833 6.19167 3.775 5.975C4.34167 5.74167 4.91667 5.625 5.5 5.625C6.08333 5.625 6.65 5.74167 7.2 5.975C7.76667 6.19167 8.275 6.525 8.725 6.975L10.6 8.85C10.8667 9.11667 11.1583 9.31667 11.475 9.45C11.7917 9.56667 12.1167 9.625 12.45 9.625C12.7833 9.625 13.1083 9.56667 13.425 9.45C13.7583 9.31667 14.0583 9.11667 14.325 8.85L15.5 7.675C15.7 7.475 15.9333 7.375 16.2 7.375C16.4833 7.375 16.725 7.475 16.925 7.675C17.125 7.875 17.225 8.11667 17.225 8.4C17.225 8.66667 17.125 8.9 16.925 9.1L15.75 10.275ZM15.725 15.275C15.275 15.725 14.7667 16.0667 14.2 16.3C13.6333 16.5167 13.0583 16.625 12.475 16.625C11.8917 16.625 11.3083 16.5167 10.725 16.3C10.1583 16.0667 9.65 15.725 9.2 15.275L7.3 13.4C7.05 13.15 6.76667 12.9667 6.45 12.85C6.13333 12.7167 5.80833 12.65 5.475 12.65C5.14167 12.65 4.81667 12.7167 4.5 12.85C4.18333 12.9667 3.9 13.15 3.65 13.4L2.475 14.575C2.29167 14.7583 2.05833 14.8583 1.775 14.875C1.50833 14.875 1.275 14.775 1.075 14.575C0.891667 14.3917 0.8 14.1583 0.8 13.875C0.8 13.5917 0.891667 13.3583 1.075 13.175L2.25 11.975C2.7 11.525 3.20833 11.1917 3.775 10.975C4.34167 10.7417 4.91667 10.625 5.5 10.625C6.08333 10.625 6.65 10.7417 7.2 10.975C7.76667 11.1917 8.275 11.525 8.725 11.975L10.6 13.85C10.8667 14.1167 11.1583 14.3167 11.475 14.45C11.8083 14.5667 12.1417 14.625 12.475 14.625C12.8083 14.625 13.1333 14.5667 13.45 14.45C13.7667 14.3167 14.0583 14.1167 14.325 13.85L15.5 12.675C15.7 12.475 15.9333 12.3833 16.2 12.4C16.4667 12.4 16.7 12.5 16.9 12.7C17.0833 12.9 17.175 13.1333 17.175 13.4C17.1917 13.6667 17.1 13.9 16.9 14.1L15.725 15.275Z" fill="#281B21"/>
    </symbol>
    <symbol id="icon-arrow" viewBox="0 0 20 21">
        <path d="M9.65 13.275C9.75 13.375 9.86667 13.425 10 13.425C10.1333 13.425 10.25 13.375 10.35 13.275L13.15 10.475C13.3167 10.3083 13.3583 10.125 13.275 9.925C13.1917 9.725 13.0333 9.625 12.8 9.625H7.2C6.96667 9.625 6.80833 9.725 6.725 9.925C6.64167 10.125 6.68333 10.3083 6.85 10.475L9.65 13.275ZM10 20.625C8.61667 20.625 7.31667 20.3667 6.1 19.85C4.88333 19.3167 3.825 18.6 2.925 17.7C2.025 16.8 1.30833 15.7417 0.775 14.525C0.258333 13.3083 5.96046e-08 12.0083 5.96046e-08 10.625C5.96046e-08 9.24167 0.258333 7.94167 0.775 6.725C1.30833 5.50833 2.025 4.45 2.925 3.55C3.825 2.65 4.88333 1.94167 6.1 1.425C7.31667 0.891666 8.61667 0.625 10 0.625C11.3833 0.625 12.6833 0.891666 13.9 1.425C15.1167 1.94167 16.175 2.65 17.075 3.55C17.975 4.45 18.6833 5.50833 19.2 6.725C19.7333 7.94167 20 9.24167 20 10.625C20 12.0083 19.7333 13.3083 19.2 14.525C18.6833 15.7417 17.975 16.8 17.075 17.7C16.175 18.6 15.1167 19.3167 13.9 19.85C12.6833 20.3667 11.3833 20.625 10 20.625Z" fill="white"/>
    </symbol>
</svg>