<svg xmlns="http://www.w3.org/2000/svg" style="position: absolute; width: 0; height: 0; clip: rect(0 0 0 0);">
    <symbol id="icon-percent" viewBox="0 0 16 17">
        <path d="M3.5 7.625C2.53333 7.625 1.70833 7.28333 1.025 6.6C0.341667 5.91667 1.19209e-07 5.09167 1.19209e-07 4.125C1.19209e-07 3.15833 0.341667 2.33333 1.025 1.65C1.70833 0.966666 2.53333 0.624999 3.5 0.624999C4.46667 0.624999 5.29167 0.966666 5.975 1.65C6.65833 2.33333 7 3.15833 7 4.125C7 5.09167 6.65833 5.91667 5.975 6.6C5.29167 7.28333 4.46667 7.625 3.5 7.625ZM3.5 5.625C3.91667 5.625 4.26667 5.48333 4.55 5.2C4.85 4.9 5 4.54167 5 4.125C5 3.70833 4.85 3.35833 4.55 3.075C4.26667 2.775 3.91667 2.625 3.5 2.625C3.08333 2.625 2.725 2.775 2.425 3.075C2.14167 3.35833 2 3.70833 2 4.125C2 4.54167 2.14167 4.9 2.425 5.2C2.725 5.48333 3.08333 5.625 3.5 5.625ZM12.5 16.625C11.5333 16.625 10.7083 16.2833 10.025 15.6C9.34167 14.9167 9 14.0917 9 13.125C9 12.1583 9.34167 11.3333 10.025 10.65C10.7083 9.96667 11.5333 9.625 12.5 9.625C13.4667 9.625 14.2917 9.96667 14.975 10.65C15.6583 11.3333 16 12.1583 16 13.125C16 14.0917 15.6583 14.9167 14.975 15.6C14.2917 16.2833 13.4667 16.625 12.5 16.625ZM12.5 14.625C12.9167 14.625 13.2667 14.4833 13.55 14.2C13.85 13.9 14 13.5417 14 13.125C14 12.7083 13.85 12.3583 13.55 12.075C13.2667 11.775 12.9167 11.625 12.5 11.625C12.0833 11.625 11.725 11.775 11.425 12.075C11.1417 12.3583 11 12.7083 11 13.125C11 13.5417 11.1417 13.9 11.425 14.2C11.725 14.4833 12.0833 14.625 12.5 14.625ZM0.7 15.925C0.516667 15.7417 0.425 15.5083 0.425 15.225C0.425 14.9417 0.516667 14.7083 0.7 14.525L13.9 1.325C14.0833 1.14166 14.3167 1.05 14.6 1.05C14.8833 1.05 15.1167 1.14166 15.3 1.325C15.4833 1.50833 15.575 1.74167 15.575 2.025C15.575 2.30833 15.4833 2.54167 15.3 2.725L2.1 15.925C1.91667 16.1083 1.68333 16.2 1.4 16.2C1.11667 16.2 0.883334 16.1083 0.7 15.925Z" fill="#281B21"/>
    </symbol>
    <symbol id="icon-medal" viewBox="0 0 16 22">
        <path d="M8 10.55L6.3 11.85C6.2 11.9333 6.1 11.9417 6 11.875C5.9 11.7917 5.86667 11.6917 5.9 11.575L6.55 9.475L4.8 8.075C4.71667 7.99167 4.69167 7.9 4.725 7.8C4.75833 7.68333 4.83333 7.625 4.95 7.625H7.1L7.75 5.575C7.78333 5.45833 7.86667 5.4 8 5.4C8.13333 5.4 8.21667 5.45833 8.25 5.575L8.9 7.625H11.025C11.1417 7.625 11.2167 7.68333 11.25 7.8C11.3 7.9 11.2833 7.99167 11.2 8.075L9.425 9.475L10.075 11.575C10.1083 11.6917 10.075 11.7917 9.975 11.875C9.875 11.9417 9.775 11.9333 9.675 11.85L8 10.55ZM8 19.625L3.325 21.175C2.99167 21.2917 2.68333 21.25 2.4 21.05C2.13333 20.85 2 20.5833 2 20.25V13.9C1.36667 13.2 0.875 12.4 0.525 11.5C0.175 10.6 1.19209e-07 9.64167 1.19209e-07 8.625C1.19209e-07 6.39167 0.775 4.5 2.325 2.95C3.875 1.4 5.76667 0.625 8 0.625C10.2333 0.625 12.125 1.4 13.675 2.95C15.225 4.5 16 6.39167 16 8.625C16 9.64167 15.825 10.6 15.475 11.5C15.125 12.4 14.6333 13.2 14 13.9V20.25C14 20.5833 13.8583 20.85 13.575 21.05C13.3083 21.25 13.0083 21.2917 12.675 21.175L8 19.625ZM8 14.625C9.66667 14.625 11.0833 14.0417 12.25 12.875C13.4167 11.7083 14 10.2917 14 8.625C14 6.95833 13.4167 5.54167 12.25 4.375C11.0833 3.20833 9.66667 2.625 8 2.625C6.33333 2.625 4.91667 3.20833 3.75 4.375C2.58333 5.54167 2 6.95833 2 8.625C2 10.2917 2.58333 11.7083 3.75 12.875C4.91667 14.0417 6.33333 14.625 8 14.625Z" fill="#281B21"/>
    </symbol>
    <symbol id="icon-flex" viewBox="0 0 18 17">
        <path d="M15.75 5.275C15.3 5.725 14.7833 6.06667 14.2 6.3C13.6167 6.53333 13.0333 6.65 12.45 6.65C11.8667 6.65 11.2917 6.54167 10.725 6.325C10.1583 6.09167 9.65 5.74167 9.2 5.275L7.325 3.4C7.075 3.15 6.79167 2.96667 6.475 2.85C6.15833 2.71667 5.83333 2.65 5.5 2.65C5.16667 2.65 4.84167 2.71667 4.525 2.85C4.20833 2.96667 3.925 3.15 3.675 3.4L2.5 4.575C2.3 4.775 2.06667 4.875 1.8 4.875C1.53333 4.85833 1.3 4.75 1.1 4.55C0.9 4.35 0.8 4.11667 0.8 3.85C0.8 3.56667 0.9 3.325 1.1 3.125L2.25 1.975C2.7 1.525 3.20833 1.19167 3.775 0.974999C4.34167 0.741666 4.91667 0.624999 5.5 0.624999C6.08333 0.624999 6.65 0.741666 7.2 0.974999C7.76667 1.19167 8.275 1.525 8.725 1.975L10.6 3.85C10.8667 4.11667 11.1583 4.31667 11.475 4.45C11.7917 4.56667 12.1167 4.625 12.45 4.625C12.7833 4.625 13.1083 4.56667 13.425 4.45C13.7583 4.31667 14.0583 4.11667 14.325 3.85L15.5 2.675C15.7 2.475 15.9333 2.375 16.2 2.375C16.4833 2.375 16.725 2.475 16.925 2.675C17.125 2.875 17.225 3.11667 17.225 3.4C17.225 3.66667 17.125 3.9 16.925 4.1L15.75 5.275ZM15.75 10.275C15.3 10.725 14.7833 11.0667 14.2 11.3C13.6333 11.5167 13.0583 11.625 12.475 11.625C11.8917 11.625 11.3083 11.5167 10.725 11.3C10.1583 11.0667 9.65 10.725 9.2 10.275L7.325 8.4C7.075 8.15 6.79167 7.96667 6.475 7.85C6.15833 7.71667 5.83333 7.65 5.5 7.65C5.16667 7.65 4.84167 7.71667 4.525 7.85C4.20833 7.96667 3.925 8.15 3.675 8.4L2.5 9.575C2.31667 9.75833 2.08333 9.85833 1.8 9.875C1.53333 9.875 1.3 9.775 1.1 9.575C0.9 9.39167 0.791667 9.15833 0.775 8.875C0.775 8.59167 0.875 8.35 1.075 8.15L2.25 6.975C2.7 6.525 3.20833 6.19167 3.775 5.975C4.34167 5.74167 4.91667 5.625 5.5 5.625C6.08333 5.625 6.65 5.74167 7.2 5.975C7.76667 6.19167 8.275 6.525 8.725 6.975L10.6 8.85C10.8667 9.11667 11.1583 9.31667 11.475 9.45C11.7917 9.56667 12.1167 9.625 12.45 9.625C12.7833 9.625 13.1083 9.56667 13.425 9.45C13.7583 9.31667 14.0583 9.11667 14.325 8.85L15.5 7.675C15.7 7.475 15.9333 7.375 16.2 7.375C16.4833 7.375 16.725 7.475 16.925 7.675C17.125 7.875 17.225 8.11667 17.225 8.4C17.225 8.66667 17.125 8.9 16.925 9.1L15.75 10.275ZM15.725 15.275C15.275 15.725 14.7667 16.0667 14.2 16.3C13.6333 16.5167 13.0583 16.625 12.475 16.625C11.8917 16.625 11.3083 16.5167 10.725 16.3C10.1583 16.0667 9.65 15.725 9.2 15.275L7.3 13.4C7.05 13.15 6.76667 12.9667 6.45 12.85C6.13333 12.7167 5.80833 12.65 5.475 12.65C5.14167 12.65 4.81667 12.7167 4.5 12.85C4.18333 12.9667 3.9 13.15 3.65 13.4L2.475 14.575C2.29167 14.7583 2.05833 14.8583 1.775 14.875C1.50833 14.875 1.275 14.775 1.075 14.575C0.891667 14.3917 0.8 14.1583 0.8 13.875C0.8 13.5917 0.891667 13.3583 1.075 13.175L2.25 11.975C2.7 11.525 3.20833 11.1917 3.775 10.975C4.34167 10.7417 4.91667 10.625 5.5 10.625C6.08333 10.625 6.65 10.7417 7.2 10.975C7.76667 11.1917 8.275 11.525 8.725 11.975L10.6 13.85C10.8667 14.1167 11.1583 14.3167 11.475 14.45C11.8083 14.5667 12.1417 14.625 12.475 14.625C12.8083 14.625 13.1333 14.5667 13.45 14.45C13.7667 14.3167 14.0583 14.1167 14.325 13.85L15.5 12.675C15.7 12.475 15.9333 12.3833 16.2 12.4C16.4667 12.4 16.7 12.5 16.9 12.7C17.0833 12.9 17.175 13.1333 17.175 13.4C17.1917 13.6667 17.1 13.9 16.9 14.1L15.725 15.275Z" fill="#281B21"/>
    </symbol>
    <symbol id="icon-arrow" viewBox="0 0 20 21">
        <path d="M9.65 13.275C9.75 13.375 9.86667 13.425 10 13.425C10.1333 13.425 10.25 13.375 10.35 13.275L13.15 10.475C13.3167 10.3083 13.3583 10.125 13.275 9.925C13.1917 9.725 13.0333 9.625 12.8 9.625H7.2C6.96667 9.625 6.80833 9.725 6.725 9.925C6.64167 10.125 6.68333 10.3083 6.85 10.475L9.65 13.275ZM10 20.625C8.61667 20.625 7.31667 20.3667 6.1 19.85C4.88333 19.3167 3.825 18.6 2.925 17.7C2.025 16.8 1.30833 15.7417 0.775 14.525C0.258333 13.3083 5.96046e-08 12.0083 5.96046e-08 10.625C5.96046e-08 9.24167 0.258333 7.94167 0.775 6.725C1.30833 5.50833 2.025 4.45 2.925 3.55C3.825 2.65 4.88333 1.94167 6.1 1.425C7.31667 0.891666 8.61667 0.625 10 0.625C11.3833 0.625 12.6833 0.891666 13.9 1.425C15.1167 1.94167 16.175 2.65 17.075 3.55C17.975 4.45 18.6833 5.50833 19.2 6.725C19.7333 7.94167 20 9.24167 20 10.625C20 12.0083 19.7333 13.3083 19.2 14.525C18.6833 15.7417 17.975 16.8 17.075 17.7C16.175 18.6 15.1167 19.3167 13.9 19.85C12.6833 20.3667 11.3833 20.625 10 20.625Z" fill="white"/>
    </symbol>
    <symbol id="icon-tiktok" viewBox="0 0 40 40">
        <path d="M40.3335 20.625C40.3335 31.6707 31.3792 40.625 20.3335 40.625C9.2878 40.625 0.333496 31.6707 0.333496 20.625C0.333496 9.57931 9.2878 0.625 20.3335 0.625C31.3792 0.625 40.3335 9.57931 40.3335 20.625Z" fill="#FA9A84"/>
        <path d="M23.7663 13.2516L23.3689 12.625H20.9641V18.2681L20.9559 23.7801C20.96 23.8211 20.9641 23.8661 20.9641 23.9071C20.9641 25.2871 19.8417 26.4133 18.457 26.4133C17.0723 26.4133 15.9498 25.2912 15.9498 23.9071C15.9498 22.527 17.0723 21.4009 18.457 21.4009C18.7437 21.4009 19.0223 21.4541 19.2804 21.5442V18.7923C19.0141 18.7472 18.7396 18.7226 18.457 18.7226C15.6016 18.7267 13.2747 21.0528 13.2747 23.9112C13.2747 26.7696 15.6016 29.0956 18.4611 29.0956C21.3206 29.0956 23.6475 26.7696 23.6475 23.9112V17.3549C24.6839 18.3909 26.0235 19.4024 27.5065 19.7259V16.9126C25.8965 16.2 24.2947 14.0951 23.7663 13.2516Z" fill="white"/>
        <path d="M23.8241 13.2153L23.8239 13.215L23.4265 12.5885L23.4064 12.5568H23.3689H20.9641H20.8959V12.625V18.268V18.2681L20.8877 23.78H20.8874L20.8881 23.7869C20.8922 23.828 20.8959 23.8699 20.8959 23.9071C20.8959 25.2495 19.8039 26.3451 18.457 26.3451C17.1099 26.3451 16.018 25.2535 16.018 23.9071C16.018 22.5646 17.11 21.4691 18.457 21.4691C18.7353 21.4691 19.0063 21.5207 19.2579 21.6086L19.3486 21.6402V21.5442V18.7923V18.7346L19.2918 18.725C19.0219 18.6794 18.7436 18.6544 18.457 18.6544H18.4569C15.5639 18.6586 13.2065 21.0151 13.2065 23.9112C13.2065 26.8072 15.5639 29.1638 18.4611 29.1638C21.3582 29.1638 23.7157 26.8072 23.7157 23.9112V17.5181C24.7391 18.5171 26.0455 19.477 27.492 19.7926L27.5747 19.8106V19.7259V16.9126V16.8682L27.5341 16.8502C26.7419 16.4996 25.9466 15.8034 25.2809 15.0849C24.6161 14.3674 24.0861 13.6336 23.8241 13.2153ZM21.0323 18.2682V18.2681V12.6932H23.3314L23.7085 13.2878C23.7085 13.2878 23.7085 13.2879 23.7086 13.2879C23.975 13.7132 24.5101 14.4537 25.1808 15.1776C25.8395 15.8885 26.6344 16.5894 27.4383 16.9567V19.6405C26.007 19.3021 24.7092 18.3198 23.6957 17.3066L23.5793 17.1903V17.3549V23.9112C23.5793 26.7319 21.2829 29.0274 18.4611 29.0274C15.6392 29.0274 13.3429 26.7319 13.3429 23.9112C13.3429 21.0904 15.6393 18.7949 18.4571 18.7908C18.7157 18.7908 18.9674 18.8117 19.2122 18.8502V21.4499C18.9734 21.3757 18.7187 21.3326 18.457 21.3326C17.0346 21.3326 15.8816 22.4894 15.8816 23.9071C15.8816 25.3289 17.0347 26.4815 18.457 26.4815C19.8794 26.4815 21.0323 25.3247 21.0323 23.9071C21.0323 23.8636 21.0281 23.8169 21.0242 23.7768L21.0323 18.2682ZM40.2653 20.625C40.2653 31.633 31.3415 40.5568 20.3335 40.5568C9.32547 40.5568 0.401697 31.633 0.401697 20.625C0.401697 9.61697 9.32547 0.693201 20.3335 0.693201C31.3415 0.693201 40.2653 9.61697 40.2653 20.625Z" stroke="white"/>
    </symbol>
    <symbol id="icon-instagram" viewBox="0 0 40 40">
        <path d="M40.667 20.625C40.667 31.6707 31.7127 40.625 20.667 40.625C9.6213 40.625 0.666992 31.6707 0.666992 20.625C0.666992 9.57931 9.6213 0.625 20.667 0.625C31.7127 0.625 40.667 9.57931 40.667 20.625Z" fill="#FA9A84"/>
        <path d="M25.3661 27.9191H15.9679C14.6692 27.9191 13.6082 26.8581 13.6082 25.5594V16.1612C13.6082 14.8625 14.6692 13.8015 15.9679 13.8015H25.3661C26.6648 13.8015 27.7258 14.8625 27.7258 16.1612V25.5594C27.7258 26.8639 26.6706 27.9191 25.3661 27.9191Z" fill="white"/>
        <path d="M20.6699 24.4868C19.7016 24.4868 18.7914 24.1099 18.1072 23.4258C17.4231 22.7417 17.0462 21.8314 17.0462 20.8632C17.0462 19.8949 17.4231 18.9847 18.1072 18.3005C18.7914 17.6164 19.7016 17.2395 20.6699 17.2395C21.6381 17.2395 22.5484 17.6164 23.2325 18.3005C23.9166 18.9847 24.2935 19.8949 24.2935 20.8632C24.2935 21.8314 23.9166 22.7417 23.2325 23.4258C22.5426 24.1099 21.6381 24.4868 20.6699 24.4868ZM20.6699 18.0107C19.0987 18.0107 17.8174 19.2862 17.8174 20.8632C17.8174 22.4344 19.0929 23.7157 20.6699 23.7157C22.2411 23.7157 23.5224 22.4402 23.5224 20.8632C23.5166 19.292 22.2411 18.0107 20.6699 18.0107Z" fill="#FA9A84"/>
        <path d="M24.9998 17.1205C25.3841 17.1205 25.6956 16.809 25.6956 16.4247C25.6956 16.0405 25.3841 15.729 24.9998 15.729C24.6156 15.729 24.3041 16.0405 24.3041 16.4247C24.3041 16.809 24.6156 17.1205 24.9998 17.1205Z" fill="#FA9A84"/>
        <path d="M23.2805 23.4742L23.2807 23.474C23.9777 22.7771 24.3617 21.8495 24.3617 20.8632C24.3617 19.8769 23.9777 18.9493 23.2807 18.2523C22.5838 17.5554 21.6562 17.1713 20.6699 17.1713C19.6836 17.1713 18.756 17.5554 18.059 18.2523C17.3621 18.9493 16.978 19.8769 16.978 20.8632C16.978 21.8495 17.3621 22.7771 18.059 23.474C18.756 24.171 19.6836 24.555 20.6699 24.555C21.6563 24.555 22.578 24.1709 23.2805 23.4742ZM23.5906 20.8632V20.8629C23.5847 19.2545 22.279 17.9425 20.6699 17.9425C19.0611 17.9425 17.7491 19.2484 17.7491 20.8632C17.7491 22.472 19.0551 23.7839 20.6699 23.7839C22.2786 23.7839 23.5906 22.4779 23.5906 20.8632ZM40.5988 20.625C40.5988 31.633 31.675 40.5568 20.667 40.5568C9.65896 40.5568 0.735193 31.633 0.735193 20.625C0.735193 9.61697 9.65896 0.693201 20.667 0.693201C31.675 0.693201 40.5988 9.61697 40.5988 20.625ZM25.3661 27.8509H15.9679C14.7068 27.8509 13.6764 26.8205 13.6764 25.5594V16.1612C13.6764 14.9001 14.7068 13.8697 15.9679 13.8697H25.3661C26.6272 13.8697 27.6576 14.9001 27.6576 16.1612V25.5594C27.6576 26.8263 26.6329 27.8509 25.3661 27.8509ZM15.9679 27.9873H25.3661C26.7083 27.9873 27.794 26.9016 27.794 25.5594V16.1612C27.794 14.8248 26.7025 13.7333 25.3661 13.7333H15.9679C14.6315 13.7333 13.54 14.8248 13.54 16.1612V25.5594C13.54 26.8958 14.6315 27.9873 15.9679 27.9873ZM20.6699 24.4186C19.7197 24.4186 18.8268 24.0489 18.1555 23.3776C17.4841 22.7062 17.1144 21.8133 17.1144 20.8632C17.1144 19.913 17.4841 19.0201 18.1555 18.3488C18.8268 17.6774 19.7197 17.3077 20.6699 17.3077C21.62 17.3077 22.5129 17.6774 23.1843 18.3488C23.8556 19.0201 24.2253 19.913 24.2253 20.8632C24.2253 21.8132 23.8557 22.7061 23.1845 23.3774C22.5071 24.049 21.6199 24.4186 20.6699 24.4186ZM17.8856 20.8632C17.8856 19.3239 19.1362 18.0789 20.6699 18.0789C22.2032 18.0789 23.4485 19.3295 23.4542 20.8634C23.4541 22.4026 22.2034 23.6475 20.6699 23.6475C19.1306 23.6475 17.8856 22.3968 17.8856 20.8632ZM24.9998 17.1887C25.4217 17.1887 25.7638 16.8466 25.7638 16.4247C25.7638 16.0028 25.4217 15.6608 24.9998 15.6608C24.5779 15.6608 24.2359 16.0028 24.2359 16.4247C24.2359 16.8466 24.5779 17.1887 24.9998 17.1887ZM25.6274 16.4247C25.6274 16.7713 25.3464 17.0523 24.9998 17.0523C24.6532 17.0523 24.3723 16.7713 24.3723 16.4247C24.3723 16.0781 24.6532 15.7972 24.9998 15.7972C25.3464 15.7972 25.6274 16.0781 25.6274 16.4247Z" stroke="white" stroke-width="0.136402"/>
    </symbol>
    <symbol id="icon-youtube" viewBox="0 0 40 40">
        <path d="M40 20.625C40 31.6707 31.0457 40.625 20 40.625C8.95431 40.625 0 31.6707 0 20.625C0 9.57931 8.95431 0.625 20 0.625C31.0457 0.625 40 9.57931 40 20.625Z" fill="#FA9A84"/>
        <path d="M27.4123 27.6838H13.2935C11.4044 27.6838 9.88235 26.0131 9.88235 23.9581V17.2919C9.88235 15.2285 11.412 13.5662 13.2935 13.5662H27.4123C29.3015 13.5662 30.8235 15.2369 30.8235 17.2919V23.9581C30.8312 26.0215 29.3015 27.6838 27.4123 27.6838Z" fill="white"/>
        <path d="M24.0571 20.5206L18.1176 17.0956V23.9456L24.0571 20.5206Z" fill="#FA9A84"/>
    </symbol>
    <symbol id="icon-home" viewBox="0 0 16 18">
        <path d="M1.19209e-07 15.5V6.5C1.19209e-07 6.18333 0.0666668 5.88333 0.2 5.6C0.35 5.31667 0.55 5.08333 0.8 4.9L6.8 0.399999C7.15 0.133333 7.55 -4.76837e-07 8 -4.76837e-07C8.45 -4.76837e-07 8.85 0.133333 9.2 0.399999L15.2 4.9C15.45 5.08333 15.6417 5.31667 15.775 5.6C15.925 5.88333 16 6.18333 16 6.5V15.5C16 16.05 15.8 16.525 15.4 16.925C15.0167 17.3083 14.55 17.5 14 17.5H11C10.7167 17.5 10.475 17.4083 10.275 17.225C10.0917 17.025 10 16.7833 10 16.5V11.5C10 11.2167 9.9 10.9833 9.7 10.8C9.51667 10.6 9.28333 10.5 9 10.5H7C6.71667 10.5 6.475 10.6 6.275 10.8C6.09167 10.9833 6 11.2167 6 11.5V16.5C6 16.7833 5.9 17.025 5.7 17.225C5.51667 17.4083 5.28333 17.5 5 17.5H2C1.45 17.5 0.975 17.3083 0.575 16.925C0.191667 16.525 1.19209e-07 16.05 1.19209e-07 15.5Z" fill="#FA9A84"/>
    </symbol>
    <symbol id="icon-account" viewBox="0 0 24 24">
        <path d="M5.52501 16.9252C6.45835 16.2252 7.47501 15.6877 8.57501 15.3127C9.67501 14.9377 10.8167 14.7502 12 14.7502C13.1833 14.7502 14.325 14.9377 15.425 15.3127C16.525 15.6877 17.5417 16.2252 18.475 16.9252C19.0583 16.1585 19.4833 15.371 19.75 14.5627C20.0167 13.7544 20.15 12.9002 20.15 12.0002C20.15 9.76686 19.35 7.8502 17.75 6.2502C16.15 4.6502 14.2333 3.8502 12 3.8502C9.76668 3.8502 7.85001 4.6502 6.25001 6.2502C4.65001 7.8502 3.85001 9.76686 3.85001 12.0002C3.85001 12.9002 3.98335 13.7544 4.25001 14.5627C4.51668 15.371 4.94168 16.1585 5.52501 16.9252ZM12.002 13.6002C10.8507 13.6002 9.87918 13.205 9.08751 12.4147C8.29585 11.6244 7.90001 10.6535 7.90001 9.5022C7.90001 8.35086 8.29518 7.37936 9.08551 6.5877C9.87585 5.79603 10.8467 5.4002 11.998 5.4002C13.1493 5.4002 14.1208 5.79536 14.9125 6.58569C15.7042 7.37603 16.1 8.34686 16.1 9.49819C16.1 10.6495 15.7048 11.621 14.9145 12.4127C14.1242 13.2044 13.1533 13.6002 12.002 13.6002ZM12 22.8002C10.5333 22.8002 9.14135 22.5147 7.82401 21.9437C6.50685 21.3725 5.36101 20.5975 4.38651 19.6187C3.41218 18.6397 2.63751 17.4919 2.06251 16.1752C1.48751 14.8585 1.20001 13.4627 1.20001 11.9877C1.20001 10.5127 1.48751 9.12103 2.06251 7.8127C2.63751 6.50436 3.41218 5.3607 4.38651 4.3817C5.36101 3.40286 6.50685 2.62786 7.82401 2.0567C9.14135 1.4857 10.5375 1.2002 12.0125 1.2002C13.4875 1.2002 14.8792 1.4877 16.1875 2.0627C17.4958 2.6377 18.6375 3.4127 19.6125 4.3877C20.5875 5.3627 21.3625 6.5037 21.9375 7.8107C22.5125 9.11769 22.8 10.5142 22.8 12.0002C22.8 13.4669 22.5145 14.8589 21.9435 16.1762C21.3723 17.4934 20.5973 18.6392 19.6185 19.6137C18.6395 20.588 17.4965 21.3627 16.1895 21.9377C14.8825 22.5127 13.486 22.8002 12 22.8002Z"/>
    </symbol>
    <symbol id="icon-cart" viewBox="0 0 24 24">
        <path d="M6.54899 21.4998C5.91632 21.4998 5.37499 21.2745 4.92499 20.8238C4.47499 20.3733 4.24999 19.8316 4.24999 19.1988C4.24999 18.5661 4.47532 18.0248 4.92599 17.5748C5.37649 17.1248 5.91816 16.8998 6.55099 16.8998C7.18366 16.8998 7.72499 17.1251 8.17499 17.5758C8.62499 18.0263 8.84999 18.568 8.84999 19.2008C8.84999 19.8335 8.62465 20.3748 8.17399 20.8248C7.72349 21.2748 7.18182 21.4998 6.54899 21.4998ZM17.149 21.4998C16.5163 21.4998 15.975 21.2745 15.525 20.8238C15.075 20.3733 14.85 19.8316 14.85 19.1988C14.85 18.5661 15.0753 18.0248 15.526 17.5748C15.9765 17.1248 16.5182 16.8998 17.151 16.8998C17.7837 16.8998 18.325 17.1251 18.775 17.5758C19.225 18.0263 19.45 18.568 19.45 19.2008C19.45 19.8335 19.2247 20.3748 18.774 20.8248C18.3235 21.2748 17.7818 21.4998 17.149 21.4998ZM4.79999 2.2998H20.9C21.2752 2.2998 21.5607 2.47064 21.7565 2.8123C21.9522 3.15397 21.95 3.4998 21.75 3.8498L17.7 11.0998C17.5 11.4831 17.2171 11.7873 16.8512 12.0123C16.4854 12.2373 16.085 12.3498 15.65 12.3498H7.89999L7.09999 13.7498H18.175C18.5417 13.7498 18.8542 13.879 19.1125 14.1373C19.3708 14.3956 19.5 14.7081 19.5 15.0748C19.5 15.4415 19.3708 15.754 19.1125 16.0123C18.8542 16.2706 18.5417 16.3998 18.175 16.3998H6.54999C5.66666 16.3998 5.01249 16.0123 4.58749 15.2373C4.16249 14.4623 4.14999 13.6998 4.54999 12.9498L5.79999 10.5998L2.19999 2.9498H1.37499C1.00832 2.9498 0.695821 2.82064 0.437488 2.5623C0.179154 2.30397 0.0499878 1.99147 0.0499878 1.6248C0.0499878 1.25814 0.179154 0.945638 0.437488 0.687305C0.695821 0.428971 1.00832 0.299805 1.37499 0.299805H2.99999C3.24449 0.299805 3.47782 0.365055 3.69999 0.495555C3.92215 0.625888 4.08882 0.810638 4.19999 1.0498L4.79999 2.2998Z"/>
    </symbol>
    <symbol id="icon-search" viewBox="0 0 24 25">
        <path d="M9.42495 16.6702C7.44162 16.6702 5.76245 15.9827 4.38745 14.6077C3.01245 13.2327 2.32495 11.5535 2.32495 9.57021C2.32495 7.58688 3.01245 5.90771 4.38745 4.53271C5.76245 3.15771 7.44162 2.47021 9.42495 2.47021C11.4083 2.47021 13.0875 3.15771 14.4625 4.53271C15.8375 5.90771 16.525 7.58688 16.525 9.57021C16.525 10.3202 16.4208 11.0369 16.2125 11.7202C16.0041 12.4035 15.7 13.0119 15.3 13.5452L20.75 18.9952C21 19.2452 21.125 19.5535 21.125 19.9202C21.125 20.2869 21 20.5952 20.75 20.8452C20.5 21.0952 20.1916 21.2202 19.825 21.2202C19.4583 21.2202 19.15 21.0952 18.9 20.8452L13.475 15.4202C12.975 15.8035 12.3625 16.1077 11.6375 16.3327C10.9125 16.5577 10.175 16.6702 9.42495 16.6702ZM9.42495 14.0202C10.675 14.0202 11.7291 13.591 12.5875 12.7327C13.4458 11.8744 13.875 10.8202 13.875 9.57021C13.875 8.32021 13.4458 7.26605 12.5875 6.40771C11.7291 5.54938 10.675 5.12021 9.42495 5.12021C8.17495 5.12021 7.12078 5.54938 6.26245 6.40771C5.40412 7.26605 4.97495 8.32021 4.97495 9.57021C4.97495 10.8202 5.40412 11.8744 6.26245 12.7327C7.12078 13.591 8.17495 14.0202 9.42495 14.0202Z" fill="black"/>
    </symbol>
    <symbol id="icon-arrow-btn" viewBox="0 0 7 12">
        <path d="M4.6 6L0.7 2.1C0.516667 1.91667 0.425 1.68333 0.425 1.4C0.425 1.11667 0.516667 0.883333 0.7 0.699999C0.883334 0.516666 1.11667 0.424999 1.4 0.424999C1.68333 0.424999 1.91667 0.516666 2.1 0.699999L6.7 5.3C6.8 5.4 6.86667 5.50833 6.9 5.625C6.95 5.74167 6.975 5.86667 6.975 6C6.975 6.13333 6.95 6.25833 6.9 6.375C6.86667 6.49167 6.8 6.6 6.7 6.7L2.1 11.3C1.91667 11.4833 1.68333 11.575 1.4 11.575C1.11667 11.575 0.883334 11.4833 0.7 11.3C0.516667 11.1167 0.425 10.8833 0.425 10.6C0.425 10.3167 0.516667 10.0833 0.7 9.9L4.6 6Z" fill="#FA9A84"/>
    </symbol>
    <symbol id="icon-cross" viewBox="0 0 22 22">
        <path d="M11 12.9445L2.44461 21.5C2.176 21.7686 1.85183 21.9029 1.47211 21.9029C1.09266 21.9029 0.768635 21.7686 0.500024 21.5C0.231412 21.2314 0.0971069 20.9073 0.0971069 20.5279C0.0971069 20.1482 0.231412 19.824 0.500024 19.5554L9.05544 11L0.500024 2.44454C0.231412 2.17593 0.0971069 1.85177 0.0971069 1.47205C0.0971069 1.0926 0.231412 0.768573 0.500024 0.499962C0.768635 0.231351 1.09266 0.0970459 1.47211 0.0970459C1.85183 0.0970459 2.176 0.231351 2.44461 0.499962L11 9.05538L19.5554 0.499962C19.8241 0.231351 20.1482 0.0970459 20.5279 0.0970459C20.9074 0.0970459 21.2314 0.231351 21.5 0.499962C21.7686 0.768573 21.9029 1.0926 21.9029 1.47205C21.9029 1.85177 21.7686 2.17593 21.5 2.44454L12.9446 11L21.5 19.5554C21.7686 19.824 21.9029 20.1482 21.9029 20.5279C21.9029 20.9073 21.7686 21.2314 21.5 21.5C21.2314 21.7686 20.9074 21.9029 20.5279 21.9029C20.1482 21.9029 19.8241 21.7686 19.5554 21.5L11 12.9445Z" fill="#FA9A84"/>
    </symbol>

</svg>